<svg width="111" height="102" viewBox="0 0 111 102" fill="none" xmlns="http://www.w3.org/2000/svg">
<g filter="url(#filter0_i_1_8)">
<path d="M19.8594 80L32.8906 38.2812H38.6094L37.4844 46.5781L24.2188 89H18.6406L19.8594 80ZM11.0938 38.2812L22.2031 80.4688L23 89H17.1406L2.42188 38.2812H11.0938ZM51.0781 80.1406L61.6719 38.2812H70.2969L55.5781 89H49.7656L51.0781 80.1406ZM39.875 38.2812L52.625 79.2969L54.0781 89H48.5469L34.9062 46.4844L33.7812 38.2812H39.875Z" fill="#8BB0C0"/>
</g>
<g filter="url(#filter1_i_1_8)">
<path d="M82.0312 81.1719L95.9062 38.2812H104.766L86.5312 89H80.7188L82.0312 81.1719ZM70.4531 38.2812L84.75 81.4062L85.7344 89H79.9219L61.5469 38.2812H70.4531Z" fill="#94C0AB"/>
</g>
<defs>
<filter id="filter0_i_1_8" x="2.42188" y="38.2812" width="67.875" height="54.7188" filterUnits="userSpaceOnUse" color-interpolation-filters="sRGB">
<feFlood flood-opacity="0" result="BackgroundImageFix"/>
<feBlend mode="normal" in="SourceGraphic" in2="BackgroundImageFix" result="shape"/>
<feColorMatrix in="SourceAlpha" type="matrix" values="0 0 0 0 0 0 0 0 0 0 0 0 0 0 0 0 0 0 127 0" result="hardAlpha"/>
<feOffset dy="4"/>
<feGaussianBlur stdDeviation="2"/>
<feComposite in2="hardAlpha" operator="arithmetic" k2="-1" k3="1"/>
<feColorMatrix type="matrix" values="0 0 0 0 0 0 0 0 0 0 0 0 0 0 0 0 0 0 0.25 0"/>
<feBlend mode="normal" in2="shape" result="effect1_innerShadow_1_8"/>
</filter>
<filter id="filter1_i_1_8" x="61.5469" y="38.2812" width="43.2188" height="54.7188" filterUnits="userSpaceOnUse" color-interpolation-filters="sRGB">
<feFlood flood-opacity="0" result="BackgroundImageFix"/>
<feBlend mode="normal" in="SourceGraphic" in2="BackgroundImageFix" result="shape"/>
<feColorMatrix in="SourceAlpha" type="matrix" values="0 0 0 0 0 0 0 0 0 0 0 0 0 0 0 0 0 0 127 0" result="hardAlpha"/>
<feOffset dy="4"/>
<feGaussianBlur stdDeviation="2"/>
<feComposite in2="hardAlpha" operator="arithmetic" k2="-1" k3="1"/>
<feColorMatrix type="matrix" values="0 0 0 0 0 0 0 0 0 0 0 0 0 0 0 0 0 0 0.25 0"/>
<feBlend mode="normal" in2="shape" result="effect1_innerShadow_1_8"/>
</filter>
</defs>
</svg>
